<svg xmlns="http://www.w3.org/2000/svg" width="450" height="300" viewBox="0 0 450 300">
  <rect width="450" height="300" fill="#F5F5F5"/>
  <rect x="20" y="20" width="410" height="260" rx="12" fill="white" stroke="#E0E0E0"/>
  
  <!-- Header -->
  <rect x="20" y="20" width="410" height="50" rx="12" fill="#E53935"/>
  <rect x="20" y="50" width="410" height="20" fill="#E53935"/>
  <text x="40" y="52" font-family="Arial" font-size="18" font-weight="bold" fill="white">🦞 脱水投研</text>
  <text x="350" y="52" font-family="Arial" font-size="12" fill="white">拉取</text>
  
  <!-- Content Cards -->
  <rect x="35" y="85" width="380" height="55" rx="8" fill="#FAFAFA" stroke="#E0E0E0"/>
  <circle cx="60" cy="112" r="15" fill="#E0E0E0"/>
  <rect x="85" y="100" width="150" height="10" rx="2" fill="#424242"/>
  <rect x="85" y="118" width="280" height="8" rx="2" fill="#9E9E9E"/>
  
  <rect x="35" y="150" width="380" height="55" rx="8" fill="#FAFAFA" stroke="#E0E0E0"/>
  <circle cx="60" cy="177" r="15" fill="#E0E0E0"/>
  <rect x="85" y="165" width="120" height="10" rx="2" fill="#424242"/>
  <rect x="85" y="183" width="300" height="8" rx="2" fill="#9E9E9E"/>
  
  <rect x="35" y="215" width="380" height="55" rx="8" fill="#FAFAFA" stroke="#E0E0E0"/>
  <circle cx="60" cy="242" r="15" fill="#E0E0E0"/>
  <rect x="85" y="230" width="180" height="10" rx="2" fill="#424242"/>
  <rect x="85" y="248" width="250" height="8" rx="2" fill="#9E9E9E"/>
</svg>