<svg xmlns="http://www.w3.org/2000/svg" width="450" height="300" viewBox="0 0 450 300">
  <rect width="450" height="300" fill="#F5F5F5"/>
  <rect x="20" y="20" width="410" height="260" rx="12" fill="white" stroke="#E0E0E0"/>
  
  <!-- Header -->
  <rect x="20" y="20" width="410" height="50" rx="12" fill="#E53935"/>
  <rect x="20" y="50" width="410" height="20" fill="#E53935"/>
  <text x="40" y="52" font-family="Arial" font-size="18" font-weight="bold" fill="white">👥 大V管理</text>
  <text x="360" y="52" font-family="Arial" font-size="12" fill="white">+ 添加</text>
  
  <!-- VIP Cards -->
  <rect x="35" y="85" width="380" height="50" rx="8" fill="#FAFAFA" stroke="#E0E0E0"/>
  <circle cx="65" cy="110" r="18" fill="#E0E0E0"/>
  <rect x="95" y="98" width="100" height="10" rx="2" fill="#424242"/>
  <rect x="95" y="114" width="80" height="6" rx="2" fill="#9E9E9E"/>
  <rect x="350" y="100" width="50" height="24" rx="4" fill="#E53935"/>
  
  <rect x="35" y="145" width="380" height="50" rx="8" fill="#FAFAFA" stroke="#E0E0E0"/>
  <circle cx="65" cy="170" r="18" fill="#E0E0E0"/>
  <rect x="95" y="158" width="80" height="10" rx="2" fill="#424242"/>
  <rect x="95" y="174" width="100" height="6" rx="2" fill="#9E9E9E"/>
  <rect x="350" y="160" width="50" height="24" rx="4" fill="#E0E0E0"/>
  
  <rect x="35" y="205" width="380" height="50" rx="8" fill="#FAFAFA" stroke="#E0E0E0"/>
  <circle cx="65" cy="230" r="18" fill="#E0E0E0"/>
  <rect x="95" y="218" width="120" height="10" rx="2" fill="#424242"/>
  <rect x="95" y="234" width="60" height="6" rx="2" fill="#9E9E9E"/>
  <rect x="350" y="220" width="50" height="24" rx="4" fill="#E53935"/>
</svg>